<svg width="22" height="18" viewBox="0 0 22 18" fill="none" xmlns="http://www.w3.org/2000/svg">
<path d="M5.5 5.5H13.5M5.5 9.5H10M14.5 14.5H8L5.5 17.5V14.5H3.5C2.70435 14.5 1.94129 14.1839 1.37868 13.6213C0.816071 13.0587 0.5 12.2956 0.5 11.5V3.5C0.5 2.70435 0.816071 1.94129 1.37868 1.37868C1.94129 0.816071 2.70435 0.5 3.5 0.5H15.5C16.2956 0.5 17.0587 0.816071 17.6213 1.37868C18.1839 1.94129 18.5 2.70435 18.5 3.5V8" stroke="white" stroke-linecap="round" stroke-linejoin="round"/>
<path d="M16.0121 15.0121C15.8231 14.8231 15.957 14.5 16.2243 14.5H17.2C17.3657 14.5 17.5 14.3657 17.5 14.2V9.8C17.5 9.63432 17.6343 9.5 17.8 9.5H19.2C19.3657 9.5 19.5 9.63431 19.5 9.8V14.2C19.5 14.3657 19.6343 14.5 19.8 14.5H20.7757C21.043 14.5 21.1769 14.8231 20.9879 15.0121L18.7121 17.2879C18.595 17.405 18.405 17.405 18.2879 17.2879L16.0121 15.0121Z" fill="#D85D27"/>
</svg>
